<svg xmlns="http://www.w3.org/2000/svg" width="1536" height="1024" viewBox="0 0 1536 1024"><path fill="#fff" d="M0 0h1536.001v1024H0V0"/><path fill="#fff" d="M0 0h396.848c-.01 21.98-.57 47.262.154 69l.252 53.542c.046 6.707.46 23.785-.263 29.901q-42.21.28-84.417-.058c-.011 24.659.995 58.69-.232 82.746a6130 6130 0 0 0-.137 80.874c-27.687.01-55.605-.141-83.28.216l-83.53.07.056 81.419c-.047 27.3-.48 55.772-.018 83.004-27.327.52-56.37.001-83.859.024L0 480.683V0"/><path fill="#fff" d="M0 0h396.848c-.01 21.98-.57 47.262.154 69l.252 53.542c.046 6.707.46 23.785-.263 29.901q-42.21.28-84.417-.058l-83.654.163c-25.417.284-58.345.717-83.564-.104l-83.715-.059c-19.945-.375-41.582.019-61.641.042V0"/><path fill="#f1f1f1" d="M0 0h145.438l-.029 68.936c-.067 27.605-.455 55.964-.053 83.508l-83.715-.059c-19.945-.375-41.582.019-61.641.042V0"/><path fill="#fff" d="M0 0h145.438l-.029 68.936-83.667.006L0 68.944z"/><path fill="#f1f1f1" d="M0 0h61.563c.006 22.274-.441 46.829.179 68.942L0 68.944z"/><path fill="#fff" d="m0 68.944 61.742-.002c.15 24.909.982 58.98-.101 83.443-19.945-.375-41.582.019-61.641.042z"/><path fill="#f1f1f1" d="m229.131 68.92 83.366-.01c-.056 25.514-1.079 58.407.077 83.475l-83.654.163c.441-7.712.492-15.88.379-23.61-.293-19.915.416-40.138-.168-60.018"/><path fill="#f1f1f1" d="M312.635 0h84.213c-.01 21.98-.57 47.262.154 69l-84.426-.045z"/><path fill="#f1f1f1" d="M145.438 0h83.415c.01 22.832-.194 46.143.105 68.942-27.194-.054-56.632.598-83.549-.006z"/><path fill="#f1f1f1" d="m0 397.75 61.604-.005 83.847-.035c-.047 27.3-.48 55.772-.018 83.004-27.327.52-56.37.001-83.859.024L0 480.683z"/><path fill="#fff" d="m0 397.75 61.604-.005-.03 82.993L0 480.683z"/><path fill="#f1f1f1" d="M145.356 152.444c25.219.821 58.147.388 83.564.104l-.019 82.6c-27.036-.194-56.485-.764-83.415.045z"/><path fill="#f1f1f1" d="M61.63 235.204q41.927.29 83.856-.011l-.152 80.806a7523 7523 0 0 0-83.665.063z"/><path fill="#f1f1f1" d="M228.95 235.027c24.29.917 59.044.683 83.392.104a6130 6130 0 0 0-.137 80.874c-27.687.01-55.605-.141-83.28.216.49-6.24.18-18.693.204-25.325q.081-27.935-.18-55.87"/><path fill="#f1f1f1" d="m61.64 152.385-.077 82.717A4041 4041 0 0 0 0 234.984v-82.557c20.06-.023 41.696-.417 61.64-.042"/><path fill="#f1f1f1" d="M0 316.222c20.28-.027 41.39.307 61.577-.15l.027 81.673L0 397.75z"/><path fill="#c7642d" d="M659.59 303.153c30.263-.35 60.909-2.707 92.131-2.96a1781 1781 0 0 1 174.696 7.833c9.166.835 36.844 1.653 42.514 8.112l.375 88.36c.082 14.814.867 42.75-.337 56.57-49.727-1.974-97.095-6.91-147.844-7.236a2437 2437 0 0 0-120.31-.083c-14.045.287-39.985.197-52.629 1.626-11.264.13-90.066 6.506-93.48 4.558-3.207-7.134-1.99-46.02-1.983-55.524l.008-88.575c3.98-4.57 6.114-4.24 12.083-4.813a1659 1659 0 0 1 51.63-4.728c13.241-.933 30.276-1.547 43.145-3.14"/><path fill="#fff" d="M727.924 304.91c51.508-2.288 112.31 1.602 163.822 4.637 16.577.978 57.542 4.271 72.554 7.263.618 15.82.25 32.61.34 48.527q.55 45.522.425 91.049c-19.057-.96-38.246-2.738-57.354-3.757a4160 4160 0 0 0-111.85-3.942c-53.42-.719-106.849.27-160.206 2.964-25.103 1.201-53.543 2.597-78.48 5.005l.094-139.669c9.818-2.456 38.937-4.662 49.355-5.496a2347 2347 0 0 1 121.3-6.581"/><path fill="#a60416" d="M716.532 310.246c14.897-1.079 35.529-.652 50.906-.677 64.134.323 128.208 3.97 191.966 10.925q-.206 65.308.262 130.615c-17.97-.699-37.361-2.447-55.49-3.485a2632 2632 0 0 0-98.686-3.654 2231 2231 0 0 0-122.896.765c-40.618 1.4-79.75 4.08-120.187 6.436l-.106-130.576c52.529-5.003 101.127-8.947 154.231-10.349"/><path fill="#f1f1f1" d="M651.954 383.67c6.414-.402 13.104-.604 19.123 1.824a21.42 21.42 0 0 1 12.007 11.998c5.987 14.7-2.136 28.6-16.32 34.096-4.765.714-23.438 2.903-26.86.42 1.152-1.886 2.25-1.924 4.53-3.006-.148-11.473.17-26.6-.33-38.38-.063-1.488-3.99-3.898-4.803-5.856 3.373-.899 9.002-.934 12.653-1.096"/><path fill="#a60416" d="M654.099 387.077c21.037-.183 24.713 23.355 14.667 37.662-20.69 17.525-14.742-27.236-14.667-37.662"/><path fill="#f1f1f1" d="m813.93 376.862.216.074c1.864 2.387.722 18.23.576 22.533 27.167-17.886 22.061 10.795 23.55 26.875.164 1.77 4.521 3.94 6.186 4.919-4.193.017-14.857.513-18.09-.84-1.223-2.956 1.528-7.983 1.631-12.335.122-5.18.094-9.496-.826-14.642l-.166-.896c-2.907-2.139-5.213-3.014-8.699-1.62-5.467 4.431-4.386 20.65-1.805 26.28 1.728.932 2.653 1.529 4.27 2.646l-.254.747c-3.272.794-15.682.089-19.343-.365l-.1-1.129c.84-.433 3.521-1.714 3.547-2.397.527-13.58.41-28.66-.007-42.304-.047-1.527-3.062-2.917-4.37-3.779l-.005-.882c3.278-1.33 9.954-2.24 13.69-2.885"/><path fill="#f1f1f1" d="M845.352 328.632c4.01-.27 8.954.702 12.571.446 20.25-1.433 31.47 18.594 13.225 31.859-4.53 1.876-26.557 3.574-28.3-.57 1.812-1.06 2.165-1.26 3.694-2.67 1.847-7.17 2.985-16.108 2.649-23.572-.138-3.066-1.552-3.534-3.84-5.493"/><path fill="#a60416" d="M857.38 332.196c16.957.455 18.388 15.526 9.407 26.03-3.591 2.246-7.036 3.576-10.494.797-2.316-5.41.388-19.904 1.087-26.827"/><path fill="#f1f1f1" d="m732.265 394.052 2.41-.238c2.677 2.967-.42 26.649 1.578 31.808.705 1.826 2.787 1.775 4.698 3.815l-.842.865c-3.723.837-10.533 1.53-14.195.584-.33-.934-.362-1.805-.375-2.792-4.533.002-8.992 4.94-13.041 4.495-12.514-1.376-9.862-20.261-9.787-29.178-.343-3.547-1.864-3.736-4.563-5.653l.51-.87c4.23-1.456 9.498-2.08 13.982-2.78.343 8.199-.114 20.025 1.01 28.308.46 1.313 1.825 2.686 3.153 3.118 12.674 4.12 9.98-21.379 6.923-26.724-1.503-.649-1.858-.607-2.693-2.001 1.48-1.355 8.783-2.31 11.232-2.757"/><path fill="#f1f1f1" d="M626.94 335.576c1.561-.32 1.826-.181 3.377.033-5.387 6.705.693 21.55 2.554 29.361.048.202 2.987.767 3.98 2.163-1.614.939-13.846 3.218-15.132 2.374l2.492-2.741c.479-2.886-3.48-19.568-4.265-23.203-1.254 5.858-4.668 24.744-7.69 28.598-4.49-1.358-13.117-20.103-16.97-22.51l.015 2.27c1.136 5.546 1.67 12.021 3.295 17.541.592 2.01 3.269 1.722 6.174 3.053-2.045 2.129-9.833 3.014-13.076 3.318l-.495-.7 3.32-3.141c.998-5.097-1.791-15.877-2.393-21.202-.623-5.51-4.652-7.155-5.317-9.038 1.906-.984 9.111-1.784 11.64-2.15a599 599 0 0 1 14.21 22.583l5.919-25.108z"/><path fill="#f1f1f1" d="M771.378 393.34c6.342.156 11.697 1.754 15.363 7.352.179 4.096-3.426 5.23-7.058 5.482-4.986-2.485-2.938-9.33-10-9.73-8.483 3.304-9.507 32.975 11.082 27.992 3.984-2.772 5.5-3.605 9.932-5.596-3.86 5.755-7.78 10.813-15.047 12.394-4.4.958-9 .07-12.728-2.46-13.867-9.29-11.394-31.686 8.456-35.433"/><path fill="#f1f1f1" d="M647.968 339.18c17.34-1.534 12.893 6.413 14.568 19.11.246 1.867 2.434 2.675 3.94 3.484l-.147 1.046c-5.967 4.469-7.529-.28-11.313.868-6.134 1.857-3.97 4.653-12.307 1.505-6.984-10.922 3.64-13.366 11.826-15.365-.403-3.014-.712-7.622-3.805-8.886-4.63 2.256-2.653 7.762-9.212 6.802l-.692-.962c1.112-4.318 3.528-5.609 7.142-7.601"/><path fill="#a60416" d="M653.82 352.532c.286.249.642.507.776.896 2.075 5.981.954 7.06-4.46 9.258-2.011-2.387-2.398-3.384-2.075-6.323 1.654-2.467 2.98-2.683 5.758-3.831"/><path fill="#f1f1f1" d="M803.94 333.22c18.553-1.582 13.624 9.56 14.489 22.801a78 78 0 0 0 3.402 2.53c-4.605 5.757-8.822-1.148-11.842-.483-5.079 1.117-3.654 2.532-10.546.94-2.545-2.258-3.673-4.147-3.531-7.589 3.194-7.847 16.116-5.55 16.384-12.024-1.193-2.032-3.014-3.007-5.098-3.88-3.57 1.672-1.298 3.715-4.959 6.014-2.67-.726-1.713-.17-3.667-2.073l.036-1.59c1.496-2.459 2.945-3.132 5.332-4.646"/><path fill="#a60416" d="m805.907 347.139 3.403.247c1.782 1.67 1.219.975 1.96 3.537-.54 3.114-.599 3.557-2.82 5.764-3.332-1.302-3.696-1.568-4.96-4.43.278-2.621.748-2.913 2.417-5.118"/><path fill="#f1f1f1" d="m871.866 395.62.654.14c1.088 2.918.639 28.525.63 33.931 2.311.756 4.55 1.09 5.84 2.958-2.8 1.849-13.519.437-17.421.144l-2.152-.052-.603-.83c.686-.537 3.766-2.899 3.855-3.577.918-7.024 1.132-18.68.283-25.795-.181-1.515-3.41-2.25-4.928-2.812l-.457-.994c3.61-1.815 10.104-2.467 14.3-3.113"/><path fill="#f1f1f1" d="M734.34 332.499c4.948.35 11.977 1.85 11.856 8.699-.11 6.311-11.648 2.785-15.716 6.824.564 8.802 11.322 5.384 16.218 4.373-17.14 21.771-37.562-12.558-12.358-19.896"/><path fill="#a60416" d="m733.05 334.82 2.978.709c1.872 1.66 2.172 1.887 2.872 4.266-.428 2.723.104 1.782-1.808 3.598-3.207.527-5.045 1.458-6.827-1.385.283-2.818 1.487-4.651 2.785-7.188"/><path fill="#fff" d="M895.489 341.43c4.167-.16 9.409-.12 11.875 3.883 1.438 2.333 2.776 3.957 2.24 6.782-4.079 4.462-9.919 1.184-15.664 3.713-.594.998-1.109 1.25-.781 2.28 2.34 7.394 8.403 5.325 13.265 4.048l.53.988c-4.534 6.075-19.296 4.983-21.339-1.882-2.57-8.634 1.567-16 9.874-19.813"/><path fill="#a60416" d="M897.76 343.151c3.423.84 4.769 3.11 4.633 6.527-1.314 2.65-.412 1.792-3.76 2.987-3.558-.339-2.967.292-4.943-1.685-.06-3.759 1.533-4.987 4.07-7.829"/><path fill="#f1f1f1" d="M678.916 335.41c3.706-.114 7.15-.674 9.856 2.276.606 2.864.606 1.672-.454 4.772-3.022-2.161-5.553-4.31-9.338-4.052-2.074 1.131-1.911.605-2.532 2.297 4.132 5.62 16.096 6.228 15.063 15.439-2.443 3.987-5.97 5.032-10.223 6.207-2.774.032-6.363.062-8.734-1.322-1.281-2.687-1.263-3.11-1.22-6.105l.85-.554c3.866 3.546 6.916 7.684 12.23 3.449l.02-1.486c-4.09-5.795-14.587-6.597-13.986-14.893 1.923-3.654 4.818-4.756 8.468-6.027"/><path fill="#fff" d="M703.28 333.958c4.33-.315 8.335-1.606 11.274 1.785.445 2.399.426 2.716-.038 5.114-2.352-.538-5.576-8.588-11.37-2.69.443 6.248 14.984 5.86 14.77 15.292-1.758 3.569-4.963 4.898-8.421 6.379-5.274.443-15.243.41-11.559-8.166 4.585 3.46 7.151 8.519 12.862 3.59.097-5.734-9.003-5.713-13.65-11.678-1.448-5.266 2.067-7.101 6.132-9.626"/><path fill="#f1f1f1" d="M766.41 332.329c3.35-.05 5.517-.012 7.405 3l-.336 1.363c-5.712 5.529-6.72-.145-11.263 2.357-1.849 4.959-.542 8.837-.401 14.072.056 2.116 2.342 2.78 4.312 4.29-1.521 1.068-5.22.557-7.314.471-2.014.085-4.303.485-5.914-.54.935-8.704 2.565-10.091 1.615-20.068l-2.738-2.012.15-.96c6.118-4.006 5.512-.32 11.742.704z"/><path fill="#f1f1f1" d="M783.567 333.257c1.683-.239 2.345-.507 3.872.232 2.745 5.476-.384 15.484 1.1 21.854 1.538.818 2.346 1.073 3.356 2.508-1.095.955-4.565.56-6.457.566-2.382.014-4.812-.097-7.196-.173l-.24-1.033 1.76-1.384c1.922-4.96 2.74-17.12-1.62-20.82 1.303-1.506 3.004-1.312 5.425-1.75"/><path fill="#f1f1f1" d="m914.825 345.204 11.525-.34c-1.173 6.724-2.68 14.719-3.068 21.627-.091 1.63 1.244 2.292 2.637 3.59l-.672 1.242c-4.328-.81-7.829-1.41-12.055-2.768 1.86-5.936 4.987-9.36 4.608-17.245-.195-4.05-.001-3.118-2.975-6.106"/><path fill="#f1f1f1" d="M865.53 379.209a5.56 5.56 0 0 1 7.163 2.368 5.56 5.56 0 1 1-7.164-2.368"/><path fill="#fff" d="M782.441 320.665a4.2 4.2 0 0 1 6.05 4.135 4.2 4.2 0 0 1-7.983 1.426 4.203 4.203 0 0 1 1.933-5.561"/><path fill="#fff" d="M922.55 332.005a4.183 4.183 0 1 1 1.69 8.195 4.183 4.183 0 0 1-1.69-8.195"/><path fill="#fff" d="M1536.001 726.416V1024h-211.508l-.05-53.85c-.713-26.359-.011-56.047.038-82.61l.05-81.082 83.051-.02c.776-25.127.074-54.351.111-79.74 27.533.083 55.557.293 83.065-.054z"/><path fill="#fff" d="M1536.001 726.416v161.177l-45.132.02c-26.203.258-57.379.69-83.151 0-.899-25.839-.357-55.19-.136-81.174.776-25.128.074-54.352.111-79.742 27.533.084 55.557.294 83.065-.053z"/><path fill="#f1f1f1" d="M1407.693 726.697c27.533.084 55.557.294 83.065-.053-.443 22.558-1.182 57.692-.05 79.805-27.064.003-56.246.585-83.126-.01.776-25.128.074-54.352.111-79.742"/><path fill="#f1f1f1" d="m1490.807 806.407 45.194.141v81.045l-45.132.02z"/><path fill="#f1f1f1" d="M1536.001 887.593v82.757c-15.028.043-30.068-.038-45.095-.244-9.17.68-22.967.228-32.493.178a2941 2941 0 0 0-50.83.122c.418-27.294.11-55.45.135-82.793 25.772.69 56.948.258 83.15 0z"/><path fill="#fff" d="M1536.001 887.593v82.757c-15.028.043-30.068-.038-45.095-.244-.542-27.037-.124-55.377-.037-82.493z"/><path fill="#f1f1f1" d="m1324.53 806.458 83.052-.02c-.221 25.985-.763 55.336.136 81.175l-83.237-.073z"/><path fill="#f1f1f1" d="M1324.444 970.15c22.658 1.14 59.557.748 82.818.316q.351 26.767.296 53.535h-83.065z"/><path fill="#f1f1f1" d="M1490.906 970.106c15.027.206 30.067.287 45.095.244V1024h-45.022z"/><path fill="#f1f1f1" d="M1490.733 480.843c14.942-.117 30.413.041 45.268-.272v245.845l-45.243.228c-27.508.347-55.532.137-83.065.053-.037 25.39.665 54.614-.11 79.742l-83.053.02v-79.641l-.061-81.607 82.781-.107c.862-20.131.394-42.434.382-62.684l.11-101.636z"/><path fill="#fff" d="m1490.82 645.194 45.181-.023v81.245l-45.243.228c-27.508.347-55.532.137-83.065.053-.628-8.534-.32-20.466-.344-29.209l-.025-52.198c27.508.068 56.074.456 83.495-.096"/><path fill="#f1f1f1" d="m1490.82 645.194 45.181-.023v81.245l-45.243.228c1.07-24.29.21-56.565.061-81.45"/><path fill="#fff" d="M1490.733 480.843c14.942-.117 30.413.041 45.268-.272v164.6l-45.182.023c-.75-15.77-.258-36.085-.283-52.08z"/><path fill="#fff" d="M1324.53 726.818c26.794-.047 56.763.722 83.163-.12-.037 25.389.665 54.613-.11 79.74l-83.053.02z"/><path fill="#a60416" d="m717.294 153.25 44.634-44.833 52.233 52.398c-24.186 8.652-37.937 30.182-28.9 55.5a42.22 42.22 0 0 0 21.786 23.8c12.296 5.763 28.412 5.003 39.757-2.647 15.09-6.732 19.897-28.097 17.94-43l41.535-15.348c13.054-4.92 26.904-9.772 39.765-14.884l-41.535 84.805c-6.341 12.909-15.658 33.471-22.644 45.561-74.213-5.29-157.207-4.25-231.521-.551l-7.773.558c-10.686-19.003-20.041-42.338-30.726-60.67-10.162-22.421-23.328-47.442-34.369-69.655 21.247 6.907 48.437 18.007 69.929 26.028 3.174-2.95 1.93-32.305 1.873-37.951 9.247.125 62.559-.501 68.016.888"/><path fill="#f1f1f1" d="M649.278 152.36c9.247.126 62.559-.5 68.016.89l-7.557 7.843c60.526 23.785 21.612 100.31-27.253 79.361a39.2 39.2 0 0 1-21.142-21.596c-3.258-8.26-3.262-15.478-2.543-24.118l-11.394-4.428c3.174-2.95 1.93-32.305 1.873-37.951"/><path fill="#fff" d="M396.848 0h167.945l.058 69.01c.034 25.104 1.192 59.228.065 83.468q-41.76.369-83.519-.093a7309 7309 0 0 0-84.406.058c.724-6.116.309-23.194.263-29.901L397.002 69c-.725-21.74-.165-47.022-.154-69.001"/><path fill="#f1f1f1" d="m397.002 69 84.222-.072c-.47 21.553-1.145 62.004.173 83.457a7309 7309 0 0 0-84.406.058c.724-6.116.309-23.194.263-29.901z"/><path fill="#f1f1f1" d="M481.402 0h83.391l.058 69.01-83.464-.054z"/><path fill="#fff" d="M61.574 480.738c27.488-.023 56.532.496 83.859-.024l-.008 82.708a4746 4746 0 0 0-.07 81.815c-8.57.546-22.45.127-31.437.128-17.266 0-35.12.2-52.338-.157-20.414-.243-41.142-.05-61.58-.04V480.682z"/><path fill="#f1f1f1" d="m0 563.326 61.594.037c27.599.007 56.332-.412 83.831.059a4746 4746 0 0 0-.07 81.815c-8.57.546-22.45.127-31.437.128-17.266 0-35.12.2-52.338-.157-20.414-.243-41.142-.05-61.58-.04z"/><path fill="#fff" d="m0 563.326 61.594.037c.013 26.893.442 55.034-.014 81.845-20.414-.243-41.142-.05-61.58-.04z"/><path fill="#f1f1f1" d="m0 480.683 61.574.055.02 82.625L0 563.326z"/><path fill="#f1f1f1" d="m968.931 316.138 21.073.071-.102 38.942c-.015 4.962-.284 17.103.335 21.451l49.633-.098-12.232 21.373c-6.41 11.16-12.978 23.032-19.596 34.008 7.416 16.22 14.909 33.833 22.63 49.71l4.529 9.876c-7.897-.017-19.118-.393-26.747.063-4.322 1.282-13.573.861-18.463.88.01 19.821-.54 42.855.25 62.34 19.74 16.615 13.341 44.338 13.985 68.17-6.126 5.903-13.525 10.713-20.123 16.356-14.298-7.336-26.945-6.84-42.39-2.313-6.402 1.876-13.915 5.895-20.014 7.472-5.733 1.112-10.106 1.026-15.942 1.117l.07-109.73c.01-9.157.898-48.327-.997-54.813-1.876-.802-3.063-.517-5.172-.4-1.542 2.174-1.112 6.723-1.23 9.887l.064.089-.27.576-4.855-.17c1.22-3.428.875-11.385.998-15.467-2.592-2.146-2.362-1.348-3.413-4.111 1.914-3.1 6.673-3.087 9.696-1.708-.05 4.108-1.913 6.584-.975 9.544 3.055.569 2.374.907 4.83-.081 1.171-2.77-.117-4.983-.198-8.07-.106-4.09 2.556-9.057-.007-12.368-7.93-1.115-76.283-4.566-82.165-3.25l-.7 4.48-.308-6.132c50.749.326 98.117 5.262 147.844 7.237 1.204-13.82.419-41.757.337-56.572z"/><path fill="#a60416" d="m990.237 376.602 49.633-.098-12.232 21.373c-6.41 11.16-12.978 23.032-19.596 34.008 7.416 16.22 14.909 33.833 22.63 49.71l4.529 9.876c-7.897-.017-19.118-.393-26.747.063q-33.09-.207-66.181-.036c11.142-11.044 22.265-22.935 33.154-34.298a5335 5335 0 0 1-.077-80.621z"/><path fill="#241b18" d="M917.154 541.887c23.8 15.064 47.643-1.734 73.088 12.868 19.739 16.614 13.34 44.337 13.984 68.17-6.126 5.902-13.525 10.712-20.123 16.355-14.298-7.336-26.945-6.84-42.39-2.313-6.402 1.876-13.915 5.895-20.014 7.472-.972-.81-1.327-1.337-2.13-2.297-1.223-10.378 23.865-17.69 16.534-30.308-3.86-6.641-13.987-1.96-16.926-5.37 1.486-9.54 8.408-9.94 16.179-10.34-.05-17.223 1.598-26.325 18.771-32.733-8.197 14.883-4.8 22.536-5.382 39.424-.806 23.43-14.631 24.168-26.187 35.435l-.571.566c10.764-2.978 19.354-8.782 25.417-18.283 11.575-18.136 3.318-38.323 10.114-58.071-20.84.607-33.924 2.399-40.364-20.575"/><path fill="#f1f1f1" d="M960.055 561.808q.563.03 1.122.078c.692.058 3.56.63 3.657.906 2.949 8.385-1.39 51.487 2.943 56.586l1.113-.594c.723-3.44.642-7.842.704-11.435q5.203-.357 10.413-.577c11.538-.39 9.484 9.168 9.31 17.508l-.22.896c-2.776.903-6.358-2.547-10.854-2.875-9.599-.7-18.026-.307-27.467 1.297 13.108-25.492 8.302-34.037 9.279-61.79"/><path fill="#f1f1f1" d="M969.507 562.527q1.575-.019 3.147.057c13.092.69 17.289 11.603 16.618 23.138-7.094 1.7-12.53 1.12-19.664.406-.316-7.32-.095-16.165-.1-23.6"/><path fill="#f1f1f1" d="m969.704 590.491 19.602-.252c.07 4.409.261 8.965-.215 13.336-4.83-.617-14.346-.276-19.56-.215.008-4.26.114-8.6.173-12.869"/><path fill="#a60416" d="m894.365 475.528-.147-.946c-.233-1.419-.441-1.805-1.004-3.113 1.841-1.028 1.098-.766 3.524-.477 3.666 4.638-.889 12.08 1.69 19.508l.064.089-.27.576-4.855-.17c1.22-3.428.875-11.385.998-15.467"/><path fill="#ac3b2f" d="M912.751 480.495c5.894-.99 17.608-.306 23.935-.45 2.969-.07 4.01-.016 5.705 1.79-.13.024-1.08.232-1.184.226-5.92-.322-24.42 1.718-28.456-1.566"/><path fill="#fff" d="m228.924 480.766 83.484-.126c-.686 25.744 1.57 57.888-.19 82.8-27.548.018-55.646.312-83.15-.06.19 24.977 1.198 57.278-.024 81.772l-83.689.085q-.317-40.907.07-81.815l.008-82.708z"/><path fill="#f1f1f1" d="m145.433 480.714 83.491.052q-.237 41.322.005 82.645l-83.504.01z"/><path fill="#f1f1f1" d="M1324.48 887.54c-.048 26.563-.75 56.251-.036 82.61l.05 53.85h-167.089l.023-53.58q42.053.346 84.111 0c-.295-27.557-.283-55.115.025-82.67 26.08.243 57.046.607 82.917-.21"/><path fill="#fff" d="M1241.38 970.611c23.298-1.508 59.125-.482 83.064-.461l.05 53.85h-83.336z"/><path fill="#f1f1f1" d="m1157.426 69.002 84.027-.104-.21 52.281c0 10.032-.331 21.455.53 31.301-27.335-.166-57.13-.608-84.332.14-.054 26.298-.799 56.328.007 82.423l-83.62.007c.01-27.026.55-55.865-.028-82.735q41.767.474 83.532.172l.162-55.231c.017-8.284.392-20.366-.068-28.254"/><path fill="#fff" d="m1324.505 480.766 83.237.018-.11 101.636c.012 20.25.48 42.553-.382 62.684l-82.781.107z"/><path fill="#f1f1f1" d="m1241.638 480.848 82.867-.082-.036 164.445c-26.856.64-55.791.153-82.831.18z"/><path fill="#f1f1f1" d="M312.218 563.44c-.283 24.493-1.183 57.875-.085 81.757-26.934.966-56.077.123-83.242.458-.033 26.828-.373 54.428.07 81.218l-83.536-.013-.07-81.623 83.689-.085c1.222-24.494.214-56.795.024-81.772 27.504.372 55.602.078 83.15.06"/><path fill="#f1f1f1" d="m229.126 397.748 83.056-.028c-.043 27.262-.465 55.7.122 82.865 27.14.192 57.629.799 84.542.01.006 8.636.698 69.117-.733 72.892-5.41-7.017-8.673-11.101-17.078-14.549-10.68 5.254-21.384 15.782-27.47 25.96-2.906-2.7-33.42-1.502-39.347-1.459 1.76-24.91-.496-57.055.19-82.799l-83.484.126c.919-25.54.496-57.203.202-83.018"/><path fill="#f1f1f1" d="M1324.48 0h83.213c0 21.6.69 47.73-.098 68.962-.394 26.37-.653 57.319.11 83.557l-83.175-.032.012-83.592c-.406-22.622-.147-46.25-.061-68.895"/><path fill="#fff" d="M1324.48 0h83.213c0 21.6.69 47.73-.098 68.962-27.139-.52-55.791-.06-83.053-.067-.406-22.622-.147-46.25-.061-68.895"/><path fill="#fff" d="M0 645.167c20.438-.01 41.166-.202 61.58.04 17.219.359 35.072.158 52.338.158 8.987 0 22.866.418 31.437-.128l.07 81.623-83.799-.05q-30.813.15-61.626-.069z"/><path fill="#f1f1f1" d="M0 645.167c20.438-.01 41.166-.202 61.58.04-.002 26.718-.496 55.021.046 81.603q-30.813.15-61.626-.069z"/><path fill="#f1f1f1" d="M312.644 887.52c23.636.99 47.787-.313 71.484.261 4.23.103 8.566.055 12.783-.31l.001 82.741c-28.149.351-56.227-.397-84.403.297q-.366 26.745-.192 53.492H229.36l-.041-53.917c7.254.482 15.062.501 22.354.36 20.065-.388 40.736.668 60.727-.378q-.141-41.272.243-82.545"/><path fill="#f1f1f1" d="M145.403 887.773c27.257.641 55.972-.124 83.508.084-.09 26.199-.63 56.27.409 82.227l.041 53.917h-83.947q.165-26.754.026-53.507c.29-27.366-.02-55.307-.037-82.721"/><path fill="#fff" d="m145.44 970.494 83.88-.41.041 53.917h-83.947q.165-26.754.026-53.507"/><path fill="#fff" d="m1490.856 397.697 45.145.013v82.861c-14.855.313-30.326.155-45.268.272l-82.99-.059a3739 3739 0 0 1-.074-83.08z"/><path fill="#f1f1f1" d="m1490.856 397.697 45.145.013v82.861c-14.855.313-30.326.155-45.268.272.96-25.954.148-56.934.123-83.146"/><path fill="#f1f1f1" d="M1407.693 0h128.308v68.912l-45.022.034-83.384.016c.787-21.232.098-47.363.098-68.962"/><path fill="#fff" d="M1490.906 0H1536v68.912l-45.022.034c-.418-22.574-.086-46.297-.073-68.946"/><path fill="#241b18" d="M351.565 564.898c6.086-10.178 16.79-20.706 27.47-25.96 8.405 3.448 11.668 7.532 17.078 14.55-.184 7.085-1.467 24.56 1.002 30.32l1.394 1.211 1.326-.208c3.528-7.09-1.251-26.01 2.938-28.768 5.864 2.439-.774 25.082 3.817 29.621l4.225.6.615 1.091c-1.208 2.922-3.704 5.123-5.932 7.48-.095 5.127-1.045 23.825.897 27.263 2.723.34 4.723-.009 6.053 1.61-.727 1.672-15.116 13.293-17.788 15.644-3.188-2.12-12.256-7.546-14.004-9.707-.069-3.33 2.41-4.173 2.51-5.232.76-8.073.34-20.223.243-28.027L371 596.26l.076-11.185 12.252-.077.155-22.915c-5.068.732-9.611.708-14.703.79l.15 69.828c2.25 2.29 2.652 2.013 3.436 4.91-.766 2.786-1.551 3.68-3.124 6.057-2.766 3.054-5.528 6.344-8.812 8.798-11.597-5.34-16.708-6.401-27.84-.755-1.061-1.69-.318-4.642.164-6.608l-20.62.093c-1.098-23.882-.198-57.264.085-81.758 5.926-.043 36.44-1.24 39.347 1.459"/><path fill="#fff" d="M348.465 592.053c-5.63 1.368-17.488 5.748-14.52 13.666 4.363 1.401 12.588-6.378 17.802 2.073 3.954 6.41.302 22.507 4.07 25.738 1.22-.303 2.396-.34 2.879-1.671 4.115-11.348-3.024-67.683 5.373-73.48 2.76 3.689 1.153 34.205 1.334 40.716.12 4.26 1.945 33.528-1.858 35.292-11.083 5.14-23.37-4.196-30.792 10.717l-20.62.093c-1.098-23.882-.198-57.264.085-81.758 5.926-.043 36.44-1.24 39.347 1.459-3.863 10.33-3.324 16.237-3.1 27.155"/><path fill="#f1f1f1" d="M368.78 562.874c.053-19.111 14.514-15.27 14.702-.79-5.068.732-9.611.708-14.703.79"/><path fill="#fff" d="M395.896 596.142c1.605.12 2.633.309 4.188.596 2.036 3.068.941 24.403.559 29.344-1.652.177-2.031-.142-3.523-.825-2.604-4.314-1.341-23.156-1.224-29.115"/><path fill="#f1f1f1" d="m564.85 69.01 84.167-.119c.079 27.565-.223 55.974.26 83.47a7619 7619 0 0 0-84.361.117c1.127-24.24-.03-58.364-.065-83.467"/><path fill="#f1f1f1" d="M905.906 68.964c27.784-.02 56.175.27 83.908-.104q.248 41.72-.147 83.44l-83.749.002z"/><path fill="#f1f1f1" d="M396.991 152.443c-.182 26.93-.574 55.776.06 82.602-27.432-.103-57.427-.683-84.709.086 1.227-24.055.22-58.087.232-82.746q42.208.338 84.417.058"/><path fill="#f1f1f1" d="M1324.469 397.668c26.67.649 56.406.325 83.2.036a3739 3739 0 0 0 .073 83.08l-83.237-.018z"/><path fill="#f1f1f1" d="m312.468 316.206 84.448.104q-.253 40.708.006 81.416l-84.74-.006c.254-27.17-.12-54.355.286-81.514"/><path fill="#f1f1f1" d="M481.397 152.385q41.76.462 83.519.093c-.92 25.719-.117 56.456-.027 82.572a4505 4505 0 0 0-83.482.094c.337-27.33.001-55.372-.01-82.759"/><path fill="#f1f1f1" d="M1407.705 152.52c27.533-.197 55.84.484 83.176-.037-.234 27.53-.21 55.062.05 82.592a5888 5888 0 0 0-83.275-.053z"/><path fill="#f1f1f1" d="m1324.53 152.487-.061 82.609c-8.025-.204-81.207.39-82.967-.41-.061-26.815-.492-55.35.197-82.056 26.794.55 55.89-.088 82.831-.143"/><path fill="#f1f1f1" d="M397.198 235.176c25.763.64 58.379.643 84.218 0-.22 26.195-1.017 54.875-.066 80.925-27.282-.087-57.38-.67-84.434.21.173-25.649-.615-55.99.282-81.135"/><path fill="#f1f1f1" d="m145.395 316.292 83.53-.071q-.21 40.752-.01 81.505l-83.464-.016z"/><path fill="#f1f1f1" d="M369.24 643.67c2.638 3.235 23.07 1.925 27.879 1.87-.091 26.667-.507 54.352.071 80.93-7.746.788-21.565.361-29.721.343a4348 4348 0 0 0-55.086.124q.24-40.871-.25-81.74l20.62-.093c-.482 1.966-1.225 4.919-.164 6.608 11.132-5.646 16.243-4.585 27.84.755 3.284-2.454 6.046-5.744 8.812-8.798"/><path fill="#f1f1f1" d="m1407.742 316.21 83.176-.002c-.099 26.454-.85 55.352-.062 81.49l-83.187.006c.012-26.946-.32-54.61.073-81.495"/><path fill="#f1f1f1" d="M1407.656 235.022a3956 3956 0 0 0-.012 81.073c-27.385-.37-55.705.034-83.139.1l-.11-81.131c27.31.432 55.815-.068 83.261-.042"/><path fill="#f1f1f1" d="m61.626 726.81 83.8.05-.142 79.398-83.582.193z"/><path fill="#f1f1f1" d="M1241.638 726.746c27.347.426 55.397-.1 82.892.072v79.64c-27.581.187-55.175.181-82.77-.017-.738-25.495-.122-53.97-.122-79.695"/><path fill="#f1f1f1" d="m481.122 480.115 11.885-.15-5.013 11.398c28.79.017 64.896 1.106 93.053-.052l-.554.955q-7.783.185-15.568.112l-.208 71.037c4.045.153 6.808.004 10.515 1.702.504 4.759 5.172 4.632 4.042 10.195-2.947 2.45-12.962 1.14-15.786-1.09l.628-.298c1.242-1.887.6-7.323.53-10.095-5.61-.12-27.652-1.42-31.467 1.02l-5.424-.154c-3.228-2.22-39.63-1.213-46.455-1.167q.21-41.709-.178-83.413"/><path fill="#a60416" d="M482.077 377.333c4.7-1.357 56.769-.65 64.957-.614l.025 80.407c3.21 3.343 24.407 25.418 26.875 26.96 2.587 2.906 4.2 4.677 7.113 7.225-28.157 1.158-64.264.069-93.053.052l5.013-11.397c4.966-13.1 15.006-33.65 21.093-47.045-6.295-11.653-13.918-24.132-20.662-35.647-2.54-5.126-8.026-13.87-11.077-19.114z"/><path fill="#f1f1f1" d="M821.218 0h84.418c.05 22.005-.625 47.41.27 68.964-27.555.538-56.91.022-84.614.028z"/><path fill="#f1f1f1" d="M1073.935 0h83.384c-.004 22.254-.512 46.943.107 69.002-27.147-.051-56.613-.748-83.526-.025z"/><path fill="#f1f1f1" d="M649.358 0h83.371l-.032 68.72c-26.631.843-56.548.16-83.546.322.463-22.761.248-46.248.207-69.042"/><path fill="#f1f1f1" d="M1241.33 0h83.15c-.085 22.644-.344 46.273.062 68.895-25.661-.744-57.378-.327-83.027.113-.333-22.929.061-46.038-.185-69.008"/><path fill="#f1f1f1" d="m0 887.928 61.582-.016.004 82.425c-20.185.214-41.403.477-61.586.21z"/><path fill="#f1f1f1" d="M481.306 316.197c17.825.094 54.817 1.14 71.425-.363l-.008 88.575c-.008 9.504-1.224 48.39 1.983 55.524 3.414 1.948 82.216-4.429 93.48-4.558-5.675 4.352-78.565 3.427-82.038 6.528-.226.202-.507 1.435-.541 1.735-.364 3.184-.117 6.695-.106 9.916 1.864 1.84 8.471 7.905 9.096 9.819l-.663.713c-2.468-1.542-23.664-23.617-26.875-26.96l-.025-80.407c-8.188-.036-60.257-.743-64.957.614-1.327-4.506-.786-52.951-.77-61.136"/><path fill="#f1f1f1" d="M582.163 563.75c7.05-.795 60.983-1.326 66.418.02 1.142 2.92.569 6.947-.835 9.691-4.009-.122-10.49 5.706-13.987 8.478 1.6 1.564 3.694 3.487 5.17 5.09q.32 18.625.186 37.252l-3.558 4.658.202.73c6.753 1.118 11.377 5.156 17.16 8.752-2.49.93-1.85.307-3.278 2.226l-.48 4.09c-1.497.836-77.211.49-82.846.097l-.921-1.145c.226-1.68.153-2.29 1.237-3.609 4.205-.96 14.627-11.138 18.238-14.704l.109-28.291-16.112.124c4.963-7.572 13.506-17.173 15.883-25.394.931-3.225-.79-5.593-2.586-8.064"/><path fill="#241b18" d="M592.473 622.776c.069-7.33 1.047-32.766-1.227-38.068 1.135-2.642 16.309-10.506 19.823-12.468a75.8 75.8 0 0 1 18.49 19.438c-7.26 6.33-16.74 11.053-24.892 18.695l.19 12.014c5.54 4.263 8.194 5.222 14.966 4.92l.662 5.735c-4 2.89-6.376 4.34-10.71 6.717-8.396-5.558-12.36-7.584-21.423-11.386a536 536 0 0 0 4.121-5.597"/><path fill="#fff" d="M605.013 583.83c3.702 2.003 8.271 8.695 10.926 12.257l-4.57 3.913c-1.983 1.627-4.238 3.268-6.294 4.832-.266-7.136-.169-13.86-.062-21.003"/><path fill="#241b18" d="M619.823 627.307a517 517 0 0 1 12.837-5.127c-3.84 4.385-7.206 7.712-12.175 10.862z"/><path fill="#f1f1f1" d="m821.295 152.505 84.468-.025c-.255 7.955-.315 18.826.516 26.64l-41.535 15.348c1.957 14.903-2.85 36.268-17.94 43l-1.946-1.837c-6.094-1.263-17.71-.864-23.628-.855z"/><path fill="#f1f1f1" d="M611.845 233.94c10.685 18.33 20.04 41.666 30.726 60.67l7.773-.56c-.1 2.84-.645 5.966.81 8.156 3.198 1.403 5.102.536 8.435.947-12.869 1.593-29.904 2.207-43.144 3.14a1659 1659 0 0 0-51.631 4.728c.518-7.746.161-18.882.141-27.013l-.155-48.97c7.593.301 42.43 1.962 47.045-1.098"/><path fill="#f1f1f1" d="M1027.638 397.877c13.576.654 32.012-.076 45.94-.231l-.01 83.096c-6.183-.008-39.546-.69-42.897.853-7.72-15.877-15.213-33.49-22.629-49.71 6.618-10.976 13.186-22.847 19.596-34.008"/><path fill="#f1f1f1" d="M821.217 970.072c28.075.052 56.69.722 84.684.14l-.265 53.789h-84.4z"/><path fill="#f1f1f1" d="M564.937 970.154c4.464.247 8.988.42 13.456.359 23.422-.322 47.126.498 70.513-.312l.222 53.8h-84.246z"/><path fill="#f1f1f1" d="M397.273 970.166c25.994.939 57.588.705 83.717.206l-.03 53.629h-83.695z"/><path fill="#f1f1f1" d="M61.628 970.412c26.231.76 57.47.242 83.812.082a4728 4728 0 0 1-.026 53.507H61.723z"/><path fill="#f1f1f1" d="M990.029 970.508c27.164.02 56.434.6 83.424-.056l.11 53.549h-83.54z"/><path fill="#f1f1f1" d="m1490.98 68.946 45.021-.034v83.486c-15.04-.144-30.068-.117-45.108.08z"/><path fill="#f1f1f1" d="M1491.004 235.144c12.886.743 31.668.205 44.997.274v80.723c-15.015-.15-30.03-.162-45.034-.031z"/><path fill="#241b18" d="M575.232 565.117c3.197-1.592 3.337-1.96 6.93-1.366 1.797 2.47 3.518 4.839 2.587 8.064-2.377 8.221-10.92 17.822-15.883 25.394l16.112-.124-.109 28.291c-3.61 3.566-14.033 13.744-18.238 14.704-7.792-9.4-21.05-4.343-29.635.189 3.53-7.149 16.38-25.942 21.513-32.56l-14.79-.027-.09-24.46c4.211-2.918 8.066-6.367 12.606-8.814 3.46-1.865 3.792-1.193 7.253-.186 2.824 2.23 12.839 3.54 15.786 1.09 1.13-5.563-3.538-5.436-4.042-10.195"/><path fill="#fff" d="M564.067 606.093c10.432.253 7.565 8.675 7.33 17.032l-10.216-.9c-.873-.188-6.435-.6-7.62-.707z"/><path fill="#fff" d="m555.735 585.787 15.508.05-5.897 9.405c-1.764 3.302-3.335 7.675-7.566 6.815-3.104-4.091-2.186-11.055-2.045-16.27"/><path fill="#241b18" d="M531.526 573.141c1.055 1.653 1.223 1.647 3.07 2.506-5 7.418-9.813 13.768-14.742 21.515l14.98-.146.013 26.655c-5.147 5.577-11.437 11.117-17.085 16.292-12.178-7.177-17.308-6.983-29.615-.343 2.615-6.151 16.435-27.002 20.773-33.31l-16.313.143c-.061-7.226.042-14.603.065-21.843l19.023-11.216c6.947 2.742 13.936 6.188 19.831-.253"/><path fill="#fff" d="M516.372 603.015c5.808 6.656 5.625 11.889 5.138 20.196-3.19-.082-7.13-.466-10.377-.692-2.483.003-4.891-.158-7.367-.297a595 595 0 0 1 12.606-19.207"/><path fill="#fff" d="M504.573 585.816c5.86-.075 11.968.042 17.85.069l-5.241 8.54c-1.396 2.306-1.765 2.93-3.644 4.84-2.682 1.438-5.797.657-8.878.268z"/><path fill="#241b18" d="M633.76 581.939c3.496-2.772 9.977-8.6 13.986-8.478a652 652 0 0 1 5.197 6.013c2.577-1.83 5.34-3.88 7.956-5.609a388 388 0 0 1 13.08 10.633c-3.798 3.031-6.304 4.962-10.39 7.544-3.155-2.733-8.215-7.383-11.48-9.644-.244 10.059-.483 20.127-.46 30.188.022 9.709.334 11.25 9.336 14.884a276 276 0 0 0 14.187-5.271c-6.26 6.078-14.694 11.816-22.253 16.222-5.783-3.596-10.407-7.634-17.16-8.752l-.202-.73 3.558-4.658q.135-18.627-.185-37.252c-1.477-1.603-3.57-3.526-5.17-5.09"/><path fill="#f1f1f1" d="M482.36 378.16c3.052 5.245 8.539 13.988 11.078 19.114l-12.23.38c-.109-6.544-.398-13.14 1.153-19.494"/><path fill="#241b18" d="m527.755 564.695 5.424.155c3.29 4.893 3.55 5.173 1.417 10.797-1.847-.859-2.015-.853-3.07-2.506-4.077-3.382-5.044-3.165-3.77-8.446"/><path fill="#f1f1f1" d="m649.295 727.107 56.792-.151c4.711-.01 22.387-.307 26.162.412 1.022 2.855.795 5.297.807 8.348l.65 2.076c-1.729.687-4.05-.8-6.113-.766-7.292.118-8.058 12.678-1.242 14.206 1.606.361 4.772.31 6.533.255l-.6.51c.302 6.98-.752 16.736.033 22.55 2.625 2.375 3.788.18 6.602 2.951 7.491 2.367 11.053 4.036 17.566 8.464l2.186 1.352c-.923 3.288-.945.016-2.226 3.122l6.838 5.582c5.031-3.493 9.765-7.926 15.242-11.098 1.921-1.112 6.604-3.193 7.548-4.59l-2.026-.295.717-1.083c5.025.357 8.007-1.42 12.662-2.682 15.96-4.326 32.319-4.45 48.695-3.207-42.112 5.088-48.944 3.766-84.61 29.473-10.56-8.916-16.083-13.17-28.54-19.235-1.2 3.529-.523 18.887-.455 23.459q-41.52-.244-83.04.006c.047-12 .753-39.543-.63-52.556-.07-.66-3.06-.808-4.144-.95.593-3.107 1.376-14.07.076-16.562l.38-.864c5.485-1.891 4.228-2.823 4.137-8.727"/><path fill="#c7642d" d="M763.283 796.018c5.031-3.493 9.765-7.926 15.242-11.098 1.921-1.112 6.604-3.193 7.548-4.59l-2.026-.295.717-1.083c5.025.357 8.007-1.42 12.662-2.682 15.96-4.326 32.319-4.45 48.695-3.207-42.112 5.088-48.944 3.766-84.61 29.473-10.56-8.916-16.083-13.17-28.54-19.235-9.646-5.02-26.838-8.018-37.502-9.34l.064-.506c1.388-1.1 9.368-.832 11.788-.875 11.347.188 24.947 4.42 35.15 9.364l.71-1.755c-1.347-.654-2.975-1.825-4.262-2.69 7.491 2.366 11.053 4.035 17.566 8.463l2.186 1.352c-.923 3.288-.945.016-2.226 3.122z"/><path fill="#f1f1f1" d="M738.919 777.498c7.491 2.367 11.053 4.036 17.566 8.464l2.186 1.352c-.923 3.288-.945.016-2.226 3.122-5.358-3.754-8.175-5.457-13.974-8.492l.71-1.755c-1.347-.654-2.975-1.825-4.262-2.69"/><path fill="#e6b780" d="M738.919 777.498c7.491 2.367 11.053 4.036 17.566 8.464-2.498.597-10.049-4.142-13.304-5.773-1.347-.654-2.975-1.825-4.262-2.69"/><path fill="#a60416" d="M732.284 751.997c-3.103 1.989-7.817 1.995-10.664-.53a9.4 9.4 0 0 1-3.186-7.262 8.63 8.63 0 0 1 2.938-6.287c3.576-3.092 7.426-2.624 11.684-2.202l.65 2.076c-1.729.687-4.05-.8-6.113-.766-7.292.118-8.058 12.678-1.242 14.206 1.606.361 4.772.31 6.533.255z"/><path fill="#a60416" d="M645.159 735.834c3.905-.172 6.47-.476 10.284.452-2.352.747-6.07 1.377-7.107 3.006l.322 2.488c3.478 2.465 3.815-.58 5.26 1.996-2.806 2.61-7.994-2.304-5.41 7.667-1.251 1.817-.86 1.232-3.806 1.818.593-3.108 1.376-14.072.076-16.563z"/><path fill="#dc8a4e" d="M695.469 773.961c-4.065-.204-6.592-.42-10.6-1.067 2.472-1.813 18.858-.708 22.452-.314-2.42.043-10.4-.225-11.788.875z"/><path fill="#a60416" d="M669.833 734.957c2.122 2.256 7.827 14.907 7.316 17.45-4.154-1.727-2.534-3.447-7.877-5.319l-2.505.808c-1.6 2.319-2.154 2.802-4.267 4.693-.447-1.876 5.852-15.293 7.333-17.632"/><path fill="#ac3b2f" d="M704.876 735.336c2.544-.169 5.785-.238 7.83 1.359l-.096 1.05c-4.82.062-8.458-.841-11.684 2.878-1.22 5.957 1.822 10.443 7.99 11.112l2.987-.991.272.445c-8.443 7.36-23.981-7.331-7.3-15.853"/><path fill="#a60416" d="M685.61 735.303c1.52.254 1.795.155 2.982 1.15.778 4.952.218 10.995.692 16.815-.486-.095-2.53-.405-2.68-.908-1.43-4.843-.47-11.733-.994-17.057"/><path fill="#f1f1f1" d="M1073.43 633.22c1.416.996 4.845 3.265 5.915 4.35l-3.914-.645c-1.89 1.825-1.294.988-2.094 3.542.622 1.493 1.113 2.998 3.007 3.498 5.726 1.512 39.58-.452 42.84.861-1.38.757-40.233.468-45.487.483.311 17.589.426 37.562.007 55.19 5.075-.057 19.104-.61 23.092.733l-.837 1.708-2.076.638c-6.076.694-14.025.445-20.308.415.082 7.116-.053 15.724.312 22.711-7.067.681-26.552.316-34.632.223-15.205-.176-34.644.61-49.374-.527-.2-10.128 4.096-12.822-7.091-15.032 2.216.037 4.15-.026 6.365-.124 1.87-1.001 2.228-1.03 3.21-2.796l-.535-1.064-2.212 1.739c-.323-1.797.232-19.435.276-22.176q.19-20.923-.019-41.845l83.386.013c-.145-3.927.044-7.958.169-11.895"/><path fill="#c7642d" d="m1096.796 701.232-.837 1.708-2.076.638c-17.054-2.086-44.495 1.555-61.868-1.37 1.322-1.118 57.118-.93 64.78-.976"/><path fill="#040303" d="M999.7 690.157c3.823-.003 10.555-.202 14.114.294l.925 1.277-.767.777c-2.843-.297-5.271-.51-8.139-.646l-.794.82c-.412 2.912-.507 3.367.234 6.19 2.127 1.152 2.649 1.09 5.032 1.384l.742.086-.165.373c-2.489.605-3.996.866-6.538 1.188-.246 2.539-.42 4.205-.336 6.8l-.804 1.447-2.677.594c.013-5.245.275-15.955-.828-20.584"/><path fill="#241b18" d="m1000.527 710.741 2.677-.594.804-1.447c-.085-2.595.09-4.261.336-6.8.159 2.897-.112 5.054 1.694 7.153 3.358 2.035 6.82.614 9.985-1.268l-.2 1.566c-3.829 2.919-10.018 2-14.878 1.792z"/><path fill="#f1f1f1" d="M397.11 397.672c27.211.58 56.446.039 83.834-.013-.27 20.467.24 60.056-.139 82.091q-.468.52-.938 1.04c-27.752.083-55.07-.47-82.986-.096.96-26.587.34-56.258.228-83.022"/><path fill="#f1f1f1" d="M1157.318 397.74q27.352.367 54.706.084c7.664-.028 21.035-.481 28.31.269 2.018 7.35.54 70.67.528 82.662a4218 4218 0 0 0-83.618.106z"/><path fill="#f1f1f1" d="M905.925 887.582c26.819.204 57.13.713 83.886-.027q-.49 41.311.052 82.622c-27.792.046-56.153-.217-83.892.19z"/><path fill="#f1f1f1" d="M1073.798 887.572c27.164.138 56.498.894 83.481.056.362 27.24.04 55.24.053 82.544q-41.79-.134-83.579.363c.077-27.289.552-55.769.045-82.963"/><path fill="#f1f1f1" d="m649.305 887.548 83.32-.005-.019 82.544c-26.75.721-56.492.082-83.434.086a6798 6798 0 0 0 .133-82.625"/><path fill="#f1f1f1" d="M565.001 887.572c-1.435 22.76-.188 59.144-.107 82.605a6111 6111 0 0 0-83.496.337l-.018-82.943c25.408.015 59.124 1.264 83.621.001"/><path fill="#f1f1f1" d="M1073.633 316.21h83.675l.01 81.53-83.703.084z"/><path fill="#f1f1f1" d="M821.188 806.503c26.927.807 57.547.154 84.757.054l-.36 50.951c-.035 8.782-.351 21.59.34 30.074l-84.69.102z"/><path fill="#f1f1f1" d="M1157.425 645.083c28.04.041 56.7.384 84.693.012-2.831 4.775-1.231 70.802-1.256 81.731h-83.601z"/><path fill="#f1f1f1" d="M1157.384 806.472c26.159.032 58.447 1.076 84.081.032-.283 23.447-1.317 58.372.099 81.12l-84.285.004z"/><path fill="#f1f1f1" d="M565.257 806.535q42.024.332 84.05.115-.405 40.454-.162 80.907c-25.897.132-58.91 1.074-84.144.015.59-26.883-.171-54.12.256-81.037"/><path fill="#f1f1f1" d="M989.93 806.446c26.281.245 57.411.745 83.594-.001l-.059 52.577c-.002 7.002-.314 21.878.333 28.55l-83.925.085z"/><path fill="#f1f1f1" d="M1241.65 316.255c27.397-.341 55.446-.036 82.892-.046l.013 81.543-82.917.025z"/><path fill="#f1f1f1" d="M989.96 235.35c26.05.504 57.685.44 83.593-.206.442 26.637-.128 54.121-.015 80.9a5233 5233 0 0 0-83.636.193z"/><path fill="#f1f1f1" d="M905.93 726.339c22.489 1.261 45.797-.067 68.375.413 5.077.109 10.432.018 15.505-.244.047 4.328-.096 12.726.535 16.685l-.214 1.74c-1.094 18.354-.249 42.69-.202 61.513-26.701.697-57.14.198-83.984.11q.165-30.814-.093-61.628c-2.287.074-4.519.46-6.147-1.198 1.797-1.334 3.493-.95 5.849-.883.253-5.703.415-10.792.375-16.508"/><path fill="#f1f1f1" d="M905.93 726.339c22.489 1.261 45.797-.067 68.375.413 5.077.109 10.432.018 15.505-.244.047 4.328-.096 12.726.535 16.685l-.214 1.74-84.28-.005c-2.286.074-4.518.46-6.146-1.198 1.797-1.334 3.493-.95 5.849-.883.253-5.703.415-10.792.375-16.508"/><path fill="#c7642d" d="m905.554 742.847 56.7.216c6.545.007 22.419-.523 28.091.13l-.214 1.74-84.28-.005c-2.286.074-4.518.46-6.146-1.198 1.797-1.334 3.493-.95 5.849-.883"/><path fill="#f1f1f1" d="M1157.633 235.198c26.769.49 56.461.398 83.23.076v80.827l-83.614.096q.516-40.498.384-81"/><path fill="#f1f1f1" d="m1073.887 726.704 83.374.122c.076 25.717-.615 54.282.123 79.646l-83.62.084c.394-26.32.036-53.456.123-79.852"/><path fill="#f1f1f1" d="M397.359 726.836q41.832.322 83.664.043c-.55 25.814-.04 53.622-.037 79.551l-83.686.03c-.489-26.164-.089-53.397.059-79.624"/><path fill="#f1f1f1" d="m229.16 726.818 83.153-.027c-.37 26.446-.223 53.203-.257 79.676l-82.692.01c-.593-26.483.288-53.141-.204-79.66"/><path fill="#241b18" d="M727.871 572.293c.873.093 12.138 5.762 14.52 6.628l9.87-4.014c-7.884 13.866-4.168 31.056-4.382 46.57-.09 6.472 7.376 4.803 8.944 5.643-1.597 2.607-12.727 10.334-15.875 10.501-3.965-1.3-5.339-5.031-7.217-8.706l-.236-.843c-1.402-.085-11.66 8.98-15.28 11.251-18.837-13.59-13.034-29.414-1.72-46.035-2.188-4.543-2.931-5.925-6.274-9.657 5.667-3.841 11.847-7.644 17.65-11.338"/><path fill="#fff" d="m720.67 600.04 13.174.059c.185 7.114 1.72 18.66-2.182 23.682-4.117 2.697-5.22 3.966-9.31 1.254-3.22-5.244-1.84-18.365-1.682-24.995"/><path fill="#fff" d="m720.362 585.097 13.358.159.059 10.855c-4.147.193-8.869.03-13.065-.017z"/><path fill="#241b18" d="M463.515 571.758c6.516 3.705 11.748 7.477 18.978 6.127l.926-.181c1.608 1.347-.845 4.11-1.138 6.807-.873 8.06-1.587 31.93-.182 38.815 1.46 2.487 3.597 3.16 6.258 4.498-4.59 4.206-8.752 8.843-14.685 10.616-5.477-1.277-2.842-7.966-6.285-10.15-11.317 10.123-19.81 17.566-25.105-4.114-3.37-13.798 2.014-20.117 9.153-31.097-2.102-3.791-4.062-6.237-6.711-9.693 6.58-3.738 12.433-7.511 18.791-11.628"/><path fill="#f1f1f1" d="m456.285 600.269 12.41.037c.142 6.977 2.07 18.837-2.485 24.262-2.101 1.686-2.405 1.974-5.027 2.485-7.783-2.341-5.138-19.683-4.898-26.784"/><path fill="#f1f1f1" d="M455.176 585.188c4.392-.027 9.107.3 13.52.523l-.038 10.492-12.226.088c-.248-4.394-.43-6.809-1.256-11.103"/><path fill="#241b18" d="M1020.675 572.895c2.821.687 10.45 5.862 11.233 9.028-.286.362-1.874 2.406-1.885 2.625-.431 8.8-4.683 37.129 4.136 41.526 1.902-.204 3.2-.792 4.555-2.195 3.482-3.604 1.811-30.26 1.746-36.797l-5.978-4.732c4.287-3.445 6.428-5.262 11.35-7.91 2.265 1.361 9 5.181 9.952 7.222-4.172 7.146-2.805 14.665-2.668 23.361-.198 8.468-2.335 18.696 6.488 22.527l.473 1.376c-2.574 3.618-10 8.389-13.865 10.571-4.541-3.946-5.436-5.344-7.767-10.876a690 690 0 0 1-11.967 9.34c-4.523-2.896-8.469-5.322-13.156-7.983 5.14-7.324 3.045-32.845 2.878-43.285l-6.572-5.13c3.963-3.972 6.474-5.56 11.047-8.668"/><path fill="#241b18" d="M408.995 539.928c4.714 1.456 13.29 6.824 18.216 9.47 3.187-.838 4.13-1.09 7.474-1.293-1.124 1.782-4.357 6.854-4.448 8.891-.882 19.038.274 38.748-.505 57.793-.625 15.268 6.543 9.17 10.018 14.37-1.483 2.558-3.817 3.864-6.272 5.63-2.838 2.06-6.061 4.021-9.04 5.913-3.804-3.082-4.949-4.34-8.14-8.106-1.074-22.773.197-49.232-.319-72.78-4.136-2.926-11.94-6.28-13.345-7.586-.251-2.585 4.651-9.53 6.36-12.302"/><path fill="#241b18" d="M787.952 571.79c4.3 1.417 31.247 19.89 35.708 23.372-.244 10.267-.036 20.832.044 31.124l-15.653 10.538c-5.473-3.214-9.393-5.256-15.131-7.963 1.967-7.24 1.036-22.499.826-30.676l.381-.233c6.029-3.573 6.217-2.204 11.865-4.435-6.76-7.907-20.47-7.896-18.04-21.727"/><path fill="#fff" d="m808.019 595.047 5.892 3.897c-.07 7.63 2.221 23.475-2.862 28.686-2.41-.87-2.796-.905-4.743-2.478-3.642-5.726-2.582-18.519-1.777-25.254.237-1.99 2.075-3.55 3.49-4.851"/><path fill="#241b18" d="M1118.766 549.12c1.322.014 1.232-.016 2.303.76-2.762 6.117-3.175 12.888-3.02 19.544.41 17.655-1.133 35.866.714 53.35.226 2.148 6.512 4.505 8.292 5.228-4.66 3.564-12.312 8.214-17.435 11.522l-9.308-9.509c1.972-1.965 3.436-4.236 5.024-6.518q-.053-19.577.099-39.156c.09-12.163.66-15.526-2.06-27.013 2.191-3.77 11.09-6.52 15.391-8.208"/><path fill="#241b18" d="m1083.09 572.067 15.194 10.445-9.283 8.013c-3.269-2.409-6.68-4.845-9.79-7.435-.082 9.943-2.504 33.448 3.447 41.262 4.957 6.511 14.705-1.177 20.578-1.816-4.265 4.065-16.629 14.577-22.08 15.63l-1.811-.595c-1.07-1.086-4.499-3.355-5.915-4.35-1.861-1-8.731-4.167-9.455-5.33l.487-.865c3.818-6.932 1.416-25.552 1.926-34.003.163-2.673-1.008-6.087-2.343-8.432z"/><path fill="#241b18" d="M1131.4 573.764c3.124.715 8.92 7.557 11.296 10.155.122 4.07.169 8.302.127 12.39-.276 27.629 5.693 45.17-24.713 58.329l-.98-.874c.554-2.78 8.103-7.307 12.244-14.118.877-14.647.29-32.489.154-47.402-3.514-3.722-6.112-6.685-10.29-9.734 4.087-3.713 7.563-5.796 12.162-8.746"/><path fill="#241b18" d="M687.869 573.21c2.853 1.139 7.147 4.19 9.075 6.657-.233.835-1.94 5.488-1.926 5.7.482 7.413-1.836 34.346 1.115 39.26 2.394 1.876 4.48 1.908 7.523 2.41l.346.965c-2.194 2.644-9.615 7.27-12.818 9.43-.228.13-1.9.597-2.273.708-2.482-1.184-8.332-6.518-11.405-8.788l4.133-5.12q.15-18.82-.136-37.634l-4.925-5.296c3.638-2.79 7.574-5.573 11.29-8.292"/><path fill="#241b18" d="M1160.495 573.778c1.968.599 5.378 3.554 7.207 4.798 3.57 2.426-.638 3.218-.669 7.304-.08 10.738-.123 21.733.046 32.477.17 2.9.406 5.397 2.694 7.39 2.725 2.373 5.334.176 7.829 1.335-.848 1.568-11.279 8.357-13.6 9.956l-.676.356c-1.947.115-10.346-5.342-13.453-6.819l4.728-6.294c.437-11.602.019-25.086-.311-36.7l-5.718-5.33c3.679-2.875 8.059-5.782 11.923-8.473"/><path fill="#241b18" d="M844.366 589.664c6.092 3.301 10.403 8.8 14.244 14.38-5.406 4.657-18.314 10.966-17.065 18.043 4.623 6.427 9.166 4.353 13.475 5.174l-.692 1.28-11.14 7.584c-3.155-2.36-12.827-7.194-13.522-8.669 2.736-5.936 1.468-22.52 1.356-30.093z"/><path fill="#fff" d="M840.074 597.503c2.53 1.332 7.929 6.646 8.23 9.727l-1.874 1.762-6.437 4.677z"/><path fill="#241b18" d="M867.05 592.425c10.963.143 2.6 23.118 5.482 33.065 2.264 2.049 3.707.976 7.082 2.024-.996 1.558-5.423 4.479-7.193 5.748l-4.664 3.645-7.23-5.794c4.05-9.893.403-24.444 2-34.918.326-2.137 2.538-2.75 4.522-3.77"/><path fill="#fff" d="M717.095 711.735c-7.43 1.29-14.82-3.566-14.101-11.758a11.07 11.07 0 0 1 4.055-7.69c3.292-2.629 6.809-2.78 10.725-2.35 13.647 2.669 12.708 17.602-.68 21.798"/><path fill="#241b18" d="M717.095 711.735c-7.43 1.29-14.82-3.566-14.101-11.758a11.07 11.07 0 0 1 4.055-7.69c3.292-2.629 6.809-2.78 10.725-2.35l-1.185 1.133c-13.61 1.492-12.649 16.949.006 19.3z"/><path fill="#040303" d="M717.774 689.936c13.647 2.67 12.708 17.603-.68 21.799l-.5-1.364c9.612-4.277 8.013-14.076-.005-19.301z"/><path fill="#a60416" d="M822.095 470.456c5.541-.661 10.598-.168 14.095 4.894a9.26 9.26 0 0 1 1.45 7.31c-.98 4.508-3.724 6.478-7.34 8.594-16.202 2.045-21.86-12.42-8.205-20.798"/><path fill="#fff" d="M822.914 471.82c12.12-.494 14.183 11.391 5.99 18.084-11.759.22-13.415-10.667-5.99-18.085"/><path fill="#a60416" d="M868.48 471.002c7.332-1.759 18.058-1.29 20.09 7.817a9.43 9.43 0 0 1-1.222 7.112c-3.978 6.227-12.204 5.482-18.597 5.399l.014-.588.26-.214c.418-4.243.747-15.694-.544-19.526"/><path fill="#fff" d="M872.898 471.823c3.823.43 8.575.788 10.51 4.278 5.562 10.035-3.32 13.057-10.418 13.827a427 427 0 0 1-.092-18.105"/><path fill="#a60416" d="m781.354 471.08-.678-.388c3.76-.598 10.702-.693 14.257.727 4.724 5.195-4.606 6.878 1.562 10.767 1.208.762 1.684 1.616 2.07 2.936-.926 7.345-13.46 7.51-18.317 5.595.315-.249.684-.626 1.008-.687.43-5.657.161-13.107.098-18.95"/><path fill="#fff" d="M785.383 481.626c2.818-.005 4.838-.299 7.203 1.278 1.469 2.39 1.264 1.315.813 4.018-1.573 2.081-1.608 2.246-3.98 3.061-2.771-.324-1.734.112-3.915-1.679-.781-2.346-.594-3.431-.531-5.904z"/><path fill="#a60416" d="m781.354 471.08 3.45.757.067 8.513.512 1.276-.41.774c-1.369 3.407.065 6.192-1.53 8.213-.385-.095-1.793-.401-2.187-.583.43-5.657.161-13.107.098-18.95"/><path fill="#fff" d="M784.804 471.837c2.734.022 4.223-.216 6.504 1.372 1.575 2.285 1.335 1.247.99 3.873-2.43 2.88-3.174 2.777-7.427 3.268z"/><path fill="#040303" d="M778.462 690.138c6.274-.23 12.042-.84 17.344 3.01 2.092 4.18-.588 6.215-4.2 8.546-.394 1.81 4.727 6.58 6.53 9.818l-5.617-.355a253 253 0 0 0-8.591-11.698c-.634 4.055-.764 6.706-.11 10.75l.14.854c-1.924 1.122-.89.802-3.26.802-3.962-4.582.128-14.975-2.236-21.727"/><path fill="#fff" d="M783.55 691.26c3.26.12 5.004.06 7.364 2.182 1.112 2.558.773 3.04.149 5.936-2.505 1.376-4.265 2.187-6.847.883-1.369-2.875-.838-5.715-.666-9"/><path fill="#a60416" d="M788.179 735.35a9.115 9.115 0 0 1 10.895 6.758 9.12 9.12 0 0 1-6.632 10.973 9.118 9.118 0 1 1-4.263-17.73"/><path fill="#fff" d="M788.327 736.27c8.941 1.595 10.61 10.399 3.137 15.605-9.204-2.083-9.402-9.727-3.137-15.605"/><path fill="#a60416" d="M637.687 470.394c4.334-.096 9.416-.535 13.628 1.09 6.352 2.45-1.338 9.293.352 12.111 1.659 2.768 2.668 3.78 4.043 7.32l-1.03.97c-1.34-.45-1.77-.896-2.948-1.699-2.061-2.986-4.055-5.152-6.458-7.856l-1.435.276q.174 1.461.294 2.93c.214 2.904.106 3.618-1.512 5.518-2.047.365-2.276.51-4.207-.058 3.092-3.622 1.952-16.817-.727-20.602"/><path fill="#fff" d="M643.595 472.302c3.518-.004 4.233.02 6.666 1.773 1.018 2.49.72 2.989.242 5.778-2.56.957-3.624 1.353-6.092.817-1.571-2.243-.953-5.398-.816-8.368"/><path fill="#a60416" d="M838.132 735.381c2.746.202 6.809.06 8.373 2.388-.815 2.656-1.14 3.23-1.04 5.937 1.59 1.824 2.062 2.143 2.815 4.367-.651 2.411-1.01 2.51-3.003 4.227-3.699.705-6.84.441-10.59.317.296-4.301-.558-14.22.543-16.76z"/><path fill="#fff" d="M837.879 743.75c2.631.451 4.018.428 6.08 2.097.914 2.886.667 1.847-.063 5.387-2.463.289-3.01.542-5.209-.35-1.426-1.924-.91-4.54-.808-7.135"/><path fill="#fff" d="M838.773 737.242a3.22 3.22 0 0 1 4.413.747 3.22 3.22 0 1 1-4.413-.747"/><path fill="#040303" d="M756.282 694.604c1.24-2.91.832-3.447 3.151-4.46 4.137 2.22 7.95 15.673 11.412 21.493-7.838-.74-4.937-.003-7.905-7.168-2.794-.087-5.927-.492-8.41.525-1.126 3.607-1.43 4.567-4.197 7.143l-1.573-2.418-.127 1.857c.149-1.835 6.286-13.918 7.65-16.972"/><path fill="#241b18" d="m756.282 694.604 1.87.93c1.96 2.444 2.493 3.844 3.775 6.624l1.013 2.311c-2.794-.087-5.927-.492-8.41.525-1.126 3.607-1.43 4.567-4.197 7.143l-1.573-2.418-.127 1.857c.149-1.835 6.286-13.918 7.65-16.972"/><path fill="#fff" d="M758.152 695.534c1.96 2.444 2.493 3.844 3.775 6.624-2.034 1.1-4.192 1.397-6.041.05-.322-2.66.94-4.221 2.266-6.674"/><path fill="#040303" d="m897.656 691.486 1.796-1.57c3.43 1.757 9.602 16.763 11.2 20.97-1.49.957-2.008.457-4.307.214-2.192-1.677-2.11-3.63-3.153-6.666-2.891-.094-5.511-.427-8.218.467-1.143 3.584-1.777 4.925-4.897 6.978l-.723-.599c.787-4.39 5.987-13.192 7.994-18.902z"/><path fill="#241b18" d="M897.656 691.486c.576 1.615 5.642 13.601 5.536 12.948-2.891-.094-5.511-.427-8.218.467-1.143 3.584-1.777 4.925-4.897 6.978l-.723-.599c.787-4.39 5.987-13.192 7.994-18.902z"/><path fill="#040303" d="m538.632 692.962 1.032-2.472 1.354-.455c3.562 2.377 8.6 16.752 11.09 21.589-3.149-.254-4.134.255-6.097-1.49l-.146-.675c-.574-2.533-.566-2.768-1.882-4.916-3.38-.16-6.736-.631-9.39 1.373.103 1.702.104 2.37 0 4.07-1.705 1.514-1.467.997-4.459 1.063l-.188-.801c2.6-3.366 6.719-12.998 8.686-17.286"/><path fill="#241b18" d="M543.983 704.543c-3.38-.16-6.736-.631-9.39 1.373.103 1.702.104 2.37 0 4.07-1.705 1.514-1.467.997-4.459 1.063l-.188-.801c2.6-3.366 6.719-12.998 8.686-17.286 1.618 2.17 4.77 8.993 5.351 11.581"/><path fill="#c7642d" d="m537.087 743.048.467-.048c28.585-.316 57.437-.534 86.008.087q.952.806 1.578 1.332c-2.954.545-7.163.493-11.265.465-24.937-.17-50.38.676-75.27-.336z"/><path fill="#241b18" d="m954.873 692.839 1.728-2.548c4.537-.302 9.123 16.164 11.984 20.64-1.6.892-4.475.703-5.954-.327.227-2.958-.454-3.262-1.798-6.18-14.127-.358-7.183 1.096-10.656 6.959l-2.306.364-.977-.88c2.37-5.856 5.697-11.194 7.74-17.297z"/><path fill="#a60416" d="M858.052 485.186c.232-6.675-.083-8.03-1.79-14.322 2.033-.64 2.777-.389 4.958-.156-1.162 8.023-1.29 12.948-1.421 21.11-2.95-1.803-11.858-12.539-14.694-15.828-.12 3.955.999 11.887.027 14.304-2.258 1.193-1.083.97-3.65.656 2.148-3.812 1.653-16.903.029-20.929 5.582.602 12.652 10.537 16.541 15.165"/><path fill="#a60416" d="M668.25 470.036c1.27 1.166 9.76 19.369 9.645 20.972-8.407.233-1.964-1.491-7.389-5.777-8.113-.18-4.365.72-11.025 5.42 2.063-6.163 5.64-14.936 8.77-20.615"/><path fill="#241b18" d="M582.346 690.174c3.973-.113 11.611-.756 14.763 1.15l.089 1.019c-2.85-.32-7.16-1.178-9.529-.094-.588 2.644-.834 4.908.925 7.052a83 83 0 0 0 4.643-.647l1.186 1.006-.233 1.416c-1.859.644-3.638.795-5.584 1.065-1.945 1.896-1.393 1.999-1.755 5.196.388.719.96 1.212 1.546 1.846 5.435 1.192 5.367-.763 10.093-.587l-.408 1.603c-2.413 1.76-11.57 1.126-15.183 1.107.288-5.453 1.046-16.176-.553-21.132"/><path fill="#241b18" d="M563.134 689.534c2.935-.075 8.714-.51 9.253 3.163-3.062-.66-5.24-1.433-8.256-.736-1.944 1.548-1.696.883-2.246 2.883 3.595 5.238 21.87 8.125 5.896 17.142-3.736 0-6.888-.013-9.443-3.195l.635-.724-.403.023c3.085.774 6.035 1.736 9.192 1.544 2.112-1.757 1.932-1.044 2.258-3.146-3.23-5.238-11.674-4.472-11.676-11.932 1.288-2.808 2.327-3.3 4.79-5.022"/><path fill="#241b18" d="M671.563 689.592c3.128.24 5.588.236 7.617 2.58l-.16 1.38c-19.288-8.769-20.292 19.01-2.901 16.05l2.482-1.422.711.36c-1.617 3.36-7.584 4.26-10.689 3.158-14.013-4.974-11.605-19.603 2.94-22.106"/><path fill="#241b18" d="m691.51 549.698 3.358 1.398c4.63 5.804-.267 9.835-4.776 13.855-9.241-4.143-6.01-11.367 1.417-15.253"/><path fill="#040303" d="M803.256 690.388c3.49-.443 17.669-.774 19.94 1.34-2.234.142-5.3.04-7.056 1.193-.999 3.552-.288 11.92-.116 15.972.656 1.267.637 1.216.875 2.625-1.956-.14-3.456-.04-5.417.048.272-5.505 1.405-14.522-1.31-19.134-3.795-1.634-2.15.376-6.416-.01z"/><path fill="#c7642d" d="M428.766 701.744c5.3-.713 58.586-1.046 62.757-.16l.274 1.597c-18.99.049-38.098.379-57.093.317-3.233-.01-4.139.176-5.938-1.754"/><path fill="#241b18" d="M623.602 690.22c2.58-.072 12.087-.3 14.062.63l.123.717c-3.908.2-6.786-.065-9.576 2.633-.344 2.044-.257 2.134.487 4.135 2.436 1.825 2.591.639 6.378 1.366l.015 1.602c-3.505-.122-4.896-.77-7.174 1.696-.74 3.347.747 4.313 1.212 7.638l-1.48.833c-2.072-.012-2.788.401-3.937-.636.724-5.01.829-14.895.013-19.9z"/><path fill="#a60416" d="M854.538 735.016c5.26.99 10.595 9.314 14.014 13.588q-.141-4.83-.062-9.66l.08.607c.607-1.883.86-1.661.463-3.281l.367.18c1.317 5.47.951 10.667.861 16.284-2.482-.022-10.907-10.192-13.096-12.641-.063 3.088.43 11.048.367 12.295l-2.03-.026c-1.116-5.122.123-10.8-.843-16.654z"/><path fill="#040303" d="M976.804 711.23c.36-7.911.155-12.562-.434-20.49l.642-.603c2.923.055 1.939-.386 3.862 1.374 1.01 3.37.3 13.614.288 18.094 3.628.082 4.885.112 8.456-.482l2.212-1.74.535 1.065c-.982 1.767-1.34 1.795-3.21 2.796-2.215.098-4.149.16-6.365.124z"/><path fill="#241b18" d="m510.71 690.573.627 2.497c-2.245 3.31-4.977 11.922-.497 14.492 4.314 2.474 8.855 1.59 13.382.678l-.085.997c-11.297 9.738-30.116-7.526-13.427-18.664"/><path fill="#241b18" d="M923.063 690.286c2.293 2.561 12.278 14.273 14.35 14.732l.525 1.583 1.04-3.185c.086 2.994.246 5.101-.331 8.087-3.56-.563-14.015-13.362-17.167-16.95a20 20 0 0 0-.639-1.947l-.231-.583z"/><path fill="#a60416" d="M678.439 470.537c3.664.02 15.158-.724 17.287.804l.11 1.641c-3.512.218-3.797-1.308-6.773-.041-.92 3.132-.41 12.3-.335 16.044l.593 1.325-.487.77c-1.941.278-3.182.714-4.874-.18 2.038-3.254 1.675-14.364.58-18.028-4.045-1.782-2.48 1.148-5.994.1z"/><path fill="#a60416" d="m738.974 473.02-.618-1.432c1.884-1.23.88-.958 3.108-.871 2.997 4.263-.878 14.544 1.696 19.377 2-.233 6.562-.532 8.007-1.658.95-.74.693-.68 2.13-1.058-.708 2.468-.138 1.622-1.99 3.377-4.036 1.251-9.309.871-13.458.187.992-6.835 1.04-11.003 1.125-17.921"/><path fill="#ac3b2f" d="M738.974 473.02c1.375 5.928-.17 11.383 1.13 17.06 1.786.86.812.704 3.056.014 2-.233 6.562-.532 8.007-1.658.95-.74.693-.68 2.13-1.058-.708 2.468-.138 1.622-1.99 3.377-4.036 1.251-9.309.871-13.458.187.992-6.835 1.04-11.003 1.125-17.921"/><path fill="#a60416" d="M700.814 470.638c2.959.053 10.154-.297 12.16.946l-.241 1.144c-3.944-.074-5-1.13-8.143.049-.414 2.572-.373 2.918.174 5.47l1.213 1.303q2.193.01 4.384-.033l.419 1.377c-5.04 3.525-6.839-4.446-6.148 9.003-2.05.908-1.157.777-3.715-.033.075-6.406.24-12.831-.103-19.226"/><path fill="#241b18" d="M851.105 710.441c-11.92-8.802-4.596-20.317 9.287-20.944l-.506 1.502c-9.897 1.694-12.487 8.966-7.152 17.315z"/><path fill="#040303" d="m876.394 690.263 3.936-.115c4.325 2.483-2.11 13.051 1.838 21.104-.553.31-4.411-.006-5.374-.048.148-5.658.633-15.7-.4-20.941"/><path fill="#c7642d" d="m763.178 766.6 6.68 7.066-6.528 6.478-6.995-6.608z"/><path fill="#241b18" d="M830.778 690.147c2.095-.05 3.74.089 5.817.245-1.625 3.741-1.232 16.36-.551 20.548l.126.74-3.557-.131c-3.726-3.17.727-12.952-1.835-21.402"/><path fill="#040303" d="m644.61 690.212 5.47-.04.749.87c-2.686 4.497-1.407 14.795-1 20.295-1.142.032-3.728.151-3.891-.309-2.388-6.721 1.387-11.997-1.328-20.816"/><path fill="#040303" d="m687.655 690.247 3.671-.078c4.588 2.606-2.01 14.694 2.442 21.406l-5.532-.042c.199-5.071.918-16.856-.581-21.286"/><path fill="#040303" d="M607.823 690.104c1.85-.073 3.403.106 5.25.26-.024 7.408-2.689 12.435.233 21.185l-5.174-.346c.262-5.665.43-15.702-.309-21.1"/><path fill="#a60416" d="M802.344 470.573c11.817-.506 1.065 10.54 6.231 20.696-2.102.097-5.971.89-5.648-2.09.73-6.737 2.53-11.937-.583-18.606"/><path fill="#a60416" d="M757.24 470.5c11.78-.238.765 10.625 6.088 20.815-12.067.627-.459-10.532-6.088-20.815"/><path fill="#a60416" d="M623.613 481.686c-.283 1.936.156 6.798.104 9.401l-.967.428c-7.217-2.092.075-13.187-3.589-19.777.748-.916.27-.524 1.866-.735 1.78.597 1.738.24 2.469 1.485l-.25 7.518z"/><path fill="#241b18" d="M1157.949 554.95c2.05.026 2.346.111 4.35.622 3.698 3.642 1.312 6.123-1.544 9.41-1.132-.046-2.363-.247-3.498-.392-4.11-3.463-2.035-6.074.692-9.64"/><path fill="#a60416" d="m719.565 470.697 4.042.065c-.287 4.012-1.223 15.834.173 19.201-1.659 1.093-2.309.893-3.892.223l-.214-1.591c.068-5.914.25-12.008-.11-17.898"/><path fill="#241b18" d="M867.649 576.509a4.562 4.562 0 0 1 5.422 5.832 4.562 4.562 0 0 1-8.798-.405 4.565 4.565 0 0 1 3.376-5.427"/><path fill="#a60416" d="M746.718 744.098c-.763 4.375-.044 6.107-1.511 10.288-2.146-2.365-3.675-16.016-2.032-18.584l2.745-.059c1.015 2.144.407 4.23.218 6.92z"/><path fill="#a60416" d="m755.28 742.64-.552-6.448c1.61-.96.692-.681 2.96-.31 1.33 2.895.789 13.68.065 16.376l-1.223.307c-2.422-2.437-1.557-5.001-1.221-8.253z"/><path fill="#a60416" d="M768.96 735.352c2.204.412 1.65.01 3.203 1.316.714 4.978.28 11.968.231 17.238-.57-.23-2.213-.846-2.395-1.278-1.573-3.728-.332-11.65-.929-16.433z"/><path fill="#a60416" d="M877.436 734.297c10.745 3.676 8.168 15.198 2.4 22.206-.834.185-.37.195-1.369-.255 5.444-9.333 5.41-13.258-1.031-21.95"/><path fill="#a60416" d="m826.297 734.312.585.916c-5.747 10.264-5.456 11.363.31 21.875-9.8-5.797-8.246-15.679-.895-22.791"/><path fill="#040303" d="M921.48 694.553c-.149 3.604.294 15.433-.385 16.94l-1.524.322c-2.325-2.387 1.996-12.994-1.44-20.53l.553-1.142 4.379.143-2.453 1.737.231.583c.283.738.425 1.199.639 1.947"/><path fill="#ac3b2f" d="M577.849 480.484c4.52-.72 23.734-1.452 27.585.772-4.296.922-23.819 1.51-27.585-.772"/><path fill="#040303" d="m862.857 709.998.127-.832c.53-3.708.263-4.423-1.168-7.858 1.308-1.026 1.436-.595 3.692-.43 3.79 2.703 2.408 5.738.6 9.593-1.454.66-1.817.885-3.405 1.245z"/><path fill="#040303" d="M937.412 705.018c-.062-6.389-.124-8.1-1.643-14.485 1.743-.406 1.9-.553 3.72-.312-.066 4.453-.487 8.896-.511 13.195l-1.04 3.185z"/><path fill="#3a3838" d="M510.71 690.573c3.376-.853 11.204-1.753 13.872.898-.02 1.71.248.968-.844 2.297-5.015-2.52-6.757-4.044-12.401-.698z"/><path fill="#ac3b2f" d="M723.78 489.963c4.462-.941 6.17.416 9.91-2.865-.087 1.914.035 1.947-1.08 3.594-3.631 1.278-10.415.833-14.383.485.171-1.061.774-1.625 1.447-2.582l.214 1.591c1.583.67 2.233.87 3.892-.223"/><path fill="#ac3b2f" d="M704.632 489.897c2.75-.52 7.263-.871 10.18-1.184l-.217 1.25c-2.522 1.986-12.43 2.267-14.688.603l1.01-.702c2.558.81 1.666.941 3.715.033"/><path fill="#ac3b2f" d="M621.027 471.003c5.32-.62 7.197-1.063 12.294.66l.252.79c-2.915.984-6.732.17-10.077.035-.731-1.246-.69-.888-2.47-1.485"/><path fill="#241b18" d="M852.734 708.314c4.092 2.095 5.3 2.421 10.123 1.684l-.154 1.718c-4.978.696-7.005.197-11.598-1.275z"/><path fill="#241b18" d="M860.392 689.497c3.195.705 4.157.732 6.415 3.25l-.653.687c-3.413-.317-3.602-1.37-6.268-2.435z"/><path fill="#ac3b2f" d="m755.28 742.64.029 1.672-8.591-.214-.58-1.434z"/><path fill="#ac3b2f" d="M623.246 480.006c2.541-.014 4.796-.352 6.874.912-1.658 1.28-4.21.884-6.507.768z"/></svg>